<svg xmlns="http://www.w3.org/2000/svg" version="1.1" xmlns:xlink="http://www.w3.org/1999/xlink" xmlns:svgjs="http://svgjs.dev/svgjs" width="1500" height="219" viewBox="0 0 1500 219"><g transform="matrix(1,0,0,1,-0.9090909090909918,0.7565623207967889)"><svg viewBox="0 0 396 58" data-background-color="#ffffff" preserveAspectRatio="xMidYMid meet" height="219" width="1500" xmlns="http://www.w3.org/2000/svg" xmlns:xlink="http://www.w3.org/1999/xlink"><g id="tight-bounds" transform="matrix(1,0,0,1,0.2400000000000091,-0.20036810322471865)"><svg viewBox="0 0 395.52 58.400736206449444" height="58.400736206449444" width="395.52"><g><svg viewBox="0 0 485.3505950268707 71.66472509053284" height="58.400736206449444" width="395.52"><g><rect width="2.9385374976357577" height="71.66472509053284" x="79.19955099092141" y="0" fill="#1ca2b7" opacity="1" stroke-width="0" stroke="transparent" fill-opacity="1" class="rect-qz-0" data-fill-palette-color="primary" rx="1%" id="qz-0" data-palette-color="#1ca2b7"></rect></g><g transform="matrix(1,0,0,1,89.83059502687067,0.17827046042420847)"><svg viewBox="0 0 395.52 71.30818416968442" height="71.30818416968442" width="395.52"><g id="textblocktransform"><svg viewBox="0 0 395.52 71.30818416968442" height="71.30818416968442" width="395.52" id="textblock"><g><svg viewBox="0 0 395.52 71.30818416968442" height="71.30818416968442" width="395.52"><g transform="matrix(1,0,0,1,0,0)"><svg width="395.52" viewBox="-12.5 -31.25 386.6 66.7" height="71.30818416968442" data-palette-color="#1ca2b7"><svg></svg><svg></svg><g class="wordmark-text-0" data-fill-palette-color="primary" id="text-0"><path d="M21.55-4.95l-1.95 4.95h-10l13.15-31.25h14.7l2.2 31.25h-10.05l-0.2-4.95zM24.65-12.9h4v-8.75h-0.5zM8.95-2.4l-0.95 2.2-20.5-2.2zM11-7.25l-0.95 2.2-20.5-2.2zM13-12.05l-0.9 2.2-20.5-2.2zM15.05-16.85l-0.95 2.2-20.45-2.2zM17.05-21.65l-0.9 2.2-20.45-2.2zM21.1-31.25l-0.9 2.15-20.4-2.15zM19.05-26.45l-0.9 2.15-20.4-2.15zM-0.2-31.25l20.4 2.15 0.9-2.15zM57.35-26.45h11.25c3.633 0 6.233 0.65 7.8 1.95 1.567 1.3 2.35 3.383 2.35 6.25v0c0 1.367-0.183 3.05-0.55 5.05v0c-0.833 4.733-2.273 8.117-4.32 10.15-2.053 2.033-5.363 3.05-9.93 3.05v0h-11.2zM67.4-19.15v0h-2.9l-2.1 12h2.9c0.967 0 1.71-0.127 2.23-0.38 0.513-0.247 0.837-0.753 0.97-1.52v0l1.45-8.25c0.033-0.133 0.05-0.4 0.05-0.8v0c0-0.7-0.867-1.05-2.6-1.05zM51.5-2.4l-0.4 2.25-21.2-2.25zM53.2-12.05l-0.4 2.25-21.2-2.25zM54.05-16.85l-0.4 2.25-21.2-2.25zM54.9-21.65l-0.4 2.25-21.2-2.25zM55.7-26.45l-0.35 2.25-21.2-2.25zM52.35-7.25l-0.4 2.25-21.2-2.25zM114.55-10.75l-4.5 10.75h-6.6l-0.75-10.75h-0.25l-2.4 10.75h-8.55l6.05-26.45h10.85l0.75 12.4h0.2l5.05-12.4h10.85l-3.2 26.45h-8.6l1.35-10.75zM90.35-2.4l-0.5 2.25-21.2-2.25zM91.5-7.25l-0.55 2.25-21.15-2.25zM92.6-12.05l-0.5 2.25-21.15-2.25zM93.65-16.85l-0.55 2.25-21-2.25zM94.75-21.65l-0.5 2.25-21-2.25zM95.9-26.45l-0.55 2.25-20.95-2.25zM145.3 0h-8.75l4.6-26.45h8.8zM135.3-2.4l-0.4 2.25-21.2-2.25zM137-12.05l-0.4 2.25-21.2-2.25zM137.85-16.85l-0.4 2.25-21.2-2.25zM138.7-21.65l-0.4 2.25-21.2-2.25zM139.5-26.45l-0.35 2.25-21.2-2.25zM136.15-7.25l-0.4 2.25-21.2-2.25zM183.3 0h-6.8l-5.15-9.9h-0.2l-1.75 9.9h-8.4l4.6-26.45h6.8l5.2 9.85h0.3l1.7-9.85h8.35zM159.75-2.4l-0.4 2.25-21.2-2.25zM161.45-12.05l-0.4 2.25-21.2-2.25zM162.3-16.85l-0.4 2.25-21.2-2.25zM163.15-21.65l-0.4 2.25-21.2-2.25zM163.95-26.45l-0.35 2.25-21.2-2.25zM160.6-7.25l-0.4 2.25-21.2-2.25z" fill="#1ca2b7" fill-rule="nonzero" stroke="none" stroke-width="1" stroke-linecap="butt" stroke-linejoin="miter" stroke-miterlimit="10" stroke-dasharray="" stroke-dashoffset="0" font-family="none" font-weight="none" font-size="none" text-anchor="none" style="mix-blend-mode: normal" data-fill-palette-color="primary" opacity="1"></path><path transform="translate(0,34.85)" d="M21.55-4.95l-1.95 4.95h-10l13.15-31.25h14.7l2.2 31.25h-10.05l-0.2-4.95zM24.65-12.9h4v-8.75h-0.5zM8.95-2.4l-0.95 2.2-20.5-2.2zM11-7.25l-0.95 2.2-20.5-2.2zM13-12.05l-0.9 2.2-20.5-2.2zM15.05-16.85l-0.95 2.2-20.45-2.2zM17.05-21.65l-0.9 2.2-20.45-2.2zM21.1-31.25l-0.9 2.15-20.4-2.15zM19.05-26.45l-0.9 2.15-20.4-2.15zM-0.2-31.25l20.4 2.15 0.9-2.15zM69.55-8.05l-0.8 7.5c-1.8 0.767-4.3 1.15-7.5 1.15-3.2 0-5.557-0.677-7.07-2.03-1.52-1.347-2.28-3.47-2.28-6.37v0c0-1.3 0.2-3.1 0.6-5.4v0c0.833-4.833 2.277-8.333 4.33-10.5 2.047-2.167 5.32-3.25 9.82-3.25v0c3.233 0 5.45 0.367 6.65 1.1v0l-2.55 6.95c-1.667-0.467-3.183-0.7-4.55-0.7-1.367 0-2.323 0.117-2.87 0.35-0.553 0.233-0.897 0.683-1.03 1.35v0l-1.95 10.7c0.7 0.167 1.91 0.25 3.63 0.25 1.713 0 3.57-0.367 5.57-1.1zM30.8-12.05h19.95c-0.133 1.033-0.217 1.733-0.25 2.1v0zM31.7-16.85h20l-0.45 2.1zM31-7.25h19.45c0 0.533 0.067 1.233 0.2 2.1v0zM33.7-21.65h19.75c-0.4 0.867-0.683 1.533-0.85 2v0zM35.35-2.4h16.15c0.4 0.8 0.833 1.417 1.3 1.85v0zM40.4-26.45h17.4c-0.8 0.467-1.483 1.017-2.05 1.65v0zM100.55-8.05l-0.8 7.5c-1.8 0.767-4.3 1.15-7.5 1.15-3.2 0-5.557-0.677-7.07-2.03-1.52-1.347-2.28-3.47-2.28-6.37v0c0-1.3 0.2-3.1 0.6-5.4v0c0.833-4.833 2.277-8.333 4.33-10.5 2.047-2.167 5.32-3.25 9.82-3.25v0c3.233 0 5.45 0.367 6.65 1.1v0l-2.55 6.95c-1.667-0.467-3.183-0.7-4.55-0.7-1.367 0-2.323 0.117-2.87 0.35-0.553 0.233-0.897 0.683-1.03 1.35v0l-1.95 10.7c0.7 0.167 1.91 0.25 3.63 0.25 1.713 0 3.57-0.367 5.57-1.1zM61.8-12.05h19.95c-0.133 1.033-0.217 1.733-0.25 2.1v0zM62.7-16.85h20l-0.45 2.1zM62-7.25h19.45c0 0.533 0.067 1.233 0.2 2.1v0zM64.7-21.65h19.75c-0.4 0.867-0.683 1.533-0.85 2v0zM66.35-2.4h16.15c0.4 0.8 0.833 1.417 1.3 1.85v0zM71.4-26.45h17.4c-0.8 0.467-1.483 1.017-2.05 1.65v0zM132.6-15.55l-0.85 4.8h-7.45l-0.6 3.4h9.25l-1.3 7.35h-17.65l4.6-26.45h17.6l-2.35 7.5h-8.15l-0.6 3.4zM112.75-2.4l-0.4 2.25-21.2-2.25zM114.45-12.05l-0.4 2.25-21.2-2.25zM115.3-16.85l-0.4 2.25-21.2-2.25zM116.15-21.65l-0.4 2.25-21.2-2.25zM116.95-26.45l-0.35 2.25-21.2-2.25zM113.6-7.25l-0.4 2.25-21.2-2.25zM164.35-7.35l-1.3 7.35h-16.25l4.6-26.45h8.8l-3.35 19.1zM145.55-2.4l-0.4 2.25-21.2-2.25zM147.25-12.05l-0.4 2.25-21.2-2.25zM148.1-16.85l-0.4 2.25-21.2-2.25zM148.95-21.65l-0.4 2.25-21.2-2.25zM149.75-26.45l-0.35 2.25-21.2-2.25zM146.4-7.25l-0.4 2.25-21.2-2.25zM193.75-15.55l-0.85 4.8h-7.45l-0.6 3.4h9.25l-1.3 7.35h-17.65l4.6-26.45h17.6l-2.35 7.5h-8.15l-0.6 3.4zM173.9-2.4l-0.4 2.25-21.2-2.25zM175.6-12.05l-0.4 2.25-21.2-2.25zM176.45-16.85l-0.4 2.25-21.2-2.25zM177.3-21.65l-0.4 2.25-21.2-2.25zM178.1-26.45l-0.35 2.25-21.2-2.25zM174.75-7.25l-0.4 2.25-21.2-2.25zM212.55-26.45h12.7c4.867 0 7.3 2.2 7.3 6.6v0c0 2-0.4 4.073-1.2 6.22-0.8 2.153-2.15 3.763-4.05 4.83v0l2.85 8.8h-9.35l-1.9-7.7h-1.2l-1.35 7.7h-8.4zM223.1-16.05l0.3-1.75c0-0.033 0.017-0.2 0.05-0.5v0c0-0.567-0.883-0.85-2.65-0.85v0h-1.1l-0.8 4.6h1.6c1.533 0 2.4-0.5 2.6-1.5zM206.7-2.4l-0.4 2.25-21.2-2.25zM208.4-12.05l-0.4 2.25-21.2-2.25zM209.25-16.85l-0.4 2.25-21.2-2.25zM210.1-21.65l-0.4 2.25-21.2-2.25zM210.9-26.45l-0.35 2.25-21.2-2.25zM207.55-7.25l-0.4 2.25-21.2-2.25zM268.85 0h-8.75l-0.2-4.05h-6.3l-1.55 4.05h-8.65l11.1-26.45h12.4zM256.25-11.2h3.65v-7.6h-0.7zM242.75-2.4l-0.95 2.2-20.5-2.2zM244.8-7.25l-0.95 2.2-20.5-2.2zM246.8-12.05l-0.9 2.2-20.5-2.2zM248.85-16.85l-0.95 2.2-20.45-2.2zM250.85-21.65l-0.9 2.2-20.45-2.2zM252.85-26.45l-0.9 2.15-20.4-2.15zM302.9-26.45l-1.35 7.5h-5.4l-3.3 18.95h-8.8l3.3-18.95h-5.55l1.35-7.5zM282.95-2.4l-0.4 2.25-21.2-2.25zM284.65-12.05l-0.4 2.25-21.2-2.25zM285.5-16.85l-0.4 2.25-21.2-2.25zM280.7-21.65l-0.4 2.25-21.2-2.25zM281.5-26.45l-0.35 2.25-21.2-2.25zM283.8-7.25l-0.4 2.25-21.2-2.25zM326.8-26.95v0c3.6 0 6.167 0.69 7.7 2.07 1.533 1.387 2.3 3.547 2.3 6.48v0c0 1.433-0.183 3.167-0.55 5.2v0c-0.833 4.8-2.3 8.3-4.4 10.5-2.1 2.2-5.4 3.3-9.9 3.3v0c-3.533 0-6.05-0.693-7.55-2.08-1.5-1.38-2.25-3.52-2.25-6.42v0c0-1.5 0.183-3.267 0.55-5.3v0c0.833-4.8 2.283-8.293 4.35-10.48 2.067-2.18 5.317-3.27 9.75-3.27zM320.45-7h2.95c0.967 0 1.693-0.117 2.18-0.35 0.48-0.233 0.803-0.75 0.97-1.55v0l1.9-10.45h-3.05c-0.933 0-1.657 0.117-2.17 0.35-0.52 0.233-0.83 0.733-0.93 1.5v0zM291-12.05h19.95c-0.133 1.033-0.217 1.733-0.25 2.1v0zM291.9-16.85h20l-0.45 2.1zM291.2-7.25h19.45c0 0.533 0.067 1.233 0.2 2.1v0zM293.9-21.65h19.75c-0.4 0.867-0.683 1.533-0.85 2v0zM295.55-2.4h16.15c0.4 0.8 0.833 1.417 1.3 1.85v0zM300.6-26.45h17.4c-0.8 0.467-1.483 1.017-2.05 1.65v0zM354.1-26.45h12.7c4.867 0 7.3 2.2 7.3 6.6v0c0 2-0.4 4.073-1.2 6.22-0.8 2.153-2.15 3.763-4.05 4.83v0l2.85 8.8h-9.35l-1.9-7.7h-1.2l-1.35 7.7h-8.4zM364.65-16.05l0.3-1.75c0-0.033 0.017-0.2 0.05-0.5v0c0-0.567-0.883-0.85-2.65-0.85v0h-1.1l-0.8 4.6h1.6c1.533 0 2.4-0.5 2.6-1.5zM348.25-2.4l-0.4 2.25-21.2-2.25zM349.95-12.05l-0.4 2.25-21.2-2.25zM350.8-16.85l-0.4 2.25-21.2-2.25zM351.65-21.65l-0.4 2.25-21.2-2.25zM352.45-26.45l-0.35 2.25-21.2-2.25zM349.1-7.25l-0.4 2.25-21.2-2.25z" fill="#1ca2b7" fill-rule="nonzero" stroke="none" stroke-width="1" stroke-linecap="butt" stroke-linejoin="miter" stroke-miterlimit="10" stroke-dasharray="" stroke-dashoffset="0" font-family="none" font-weight="none" font-size="none" text-anchor="none" style="mix-blend-mode: normal" data-fill-palette-color="primary" opacity="1"></path></g></svg></g></svg></g></svg></g></svg></g><g transform="matrix(1,0,0,1,0,0.17827046042420847)"><svg viewBox="0 0 71.50704445260791 71.30818416968442" height="71.30818416968442" width="71.50704445260791"><g><svg xmlns="http://www.w3.org/2000/svg" xmlns:xlink="http://www.w3.org/1999/xlink" version="1.1" x="0" y="0" viewBox="5.958033923305141 6.08 88.08596607669486 87.841" enable-background="new 0 0 100 100" xml:space="preserve" height="71.30818416968442" width="71.50704445260791" class="icon-icon-0" data-fill-palette-color="accent" id="icon-0"><path d="M87.921 64.017c-1.854-1.63-17.356-7.408-25.238-10.109 3.012-3.726 4.971-8.288 5.784-11.438 1.18-1.17 2.043-3.33 2.118-5.423 0.064-1.801-0.465-3.362-1.501-4.468 0.006-0.536 3.317-7.547 0.336-15.516C66.111 8.218 59.389 6.08 55.611 6.08c-4.634 0-8.772 2.64-10.726 4.118-0.989-0.935-2.609-2.065-4.653-2.065-3.293 0-6.983 2.111-9.502 7.698-3.466 7.691-0.566 14.727 0.305 17.193-0.927 0.987-1.425 2.306-1.42 3.814 0.006 2.079 1.004 4.436 2.349 5.687 0.552 2.109 2.108 7.061 5.408 11.383-16.008 6.026-24.514 9.463-25.291 10.22-1.808 1.76-4.854 15.645-6.08 20.673-0.11 0.45-0.006 0.926 0.28 1.291 0.287 0.365 0.724 0.577 1.188 0.577h12.229l1.472 6.095c0.164 0.679 0.771 1.157 1.468 1.157H77.87c0.698 0 1.305-0.478 1.468-1.156l1.472-6.096h11.703c0.007 0 0.013 0 0.02 0 0.835 0 1.511-0.677 1.511-1.511C94.044 84.976 89.842 65.705 87.921 64.017zM34.775 41.32c-0.088-0.364-0.307-0.683-0.616-0.894-0.604-0.413-1.524-2.058-1.524-3.597 0-2.019 1.304-2.066 1.304-2.066 0.307-0.028 2.688-4.897 3.539-7.753 0.737-2.474 1.049-4.361 1.175-5.639 2.111 1.744 5.034 3.768 11.894 3.72 6.507-0.046 10.276-4.721 11.031-5.394 2.606 3.724 4.423 14.985 4.48 15.066 0.046 0.067 1.597 0.063 1.507 2.175-0.073 1.728-0.887 3.16-1.331 3.477-0.302 0.215-0.514 0.535-0.596 0.897-0.714 3.15-4.751 16.529-15.618 16.529C38.942 57.841 35.193 43.058 34.775 41.32zM76.681 90.899H23.826l-4.104-18.849h61.063L76.681 90.899z" fill="#1ca2b7" data-fill-palette-color="accent"></path></svg></g></svg></g></svg></g><defs></defs></svg><rect width="395.52" height="58.400736206449444" fill="none" stroke="none" visibility="hidden"></rect></g></svg></g></svg>